<svg xmlns="http://www.w3.org/2000/svg" viewBox="0 0 512 512">
<rect width="512" height="512" rx="92.16" ry="92.16" fill="#222222"></rect>
<g transform="translate(102.40 105.40) scale(1.4985)"><path d="M133.04 0.25L132.96 0.75L126.44 1.02L113.48 1.06L107.27 1.56L107.81 2.52L108.54 3.00L109.46 3.00L110.21 3.50L110.79 4.50L111.54 5.00L112.46 5.00L113.94 6.02L115.98 8.06L117.00 9.54L117.00 10.46L117.50 11.21L118.50 11.79L119.00 12.54L119.00 13.46L119.25 13.96L119.75 14.04L120.00 14.54L120.00 15.46L120.25 15.96L120.75 16.04L121.00 16.79L121.00 18.21L121.25 18.96L121.75 19.04L122.00 19.79L122.00 21.21L122.25 21.96L122.75 22.04L123.00 23.29L123.00 25.71L123.25 26.96L123.75 27.04L124.00 30.04L124.00 35.96L124.25 38.96L124.75 39.04L125.00 43.04L125.00 50.96L124.75 54.96L124.25 55.04L124.00 76.54L124.00 119.46L124.27 141.19L124.81 141.73L125.31 141.98L125.77 141.94L126.00 141.46L126.00 140.54L127.00 139.29L129.00 137.71L130.00 136.46L130.00 135.54L130.50 134.79L131.50 134.21L132.50 132.46L133.50 129.54L134.50 127.79L135.50 127.21L136.00 126.46L136.00 125.54L136.25 125.04L136.75 124.96L137.00 124.46L137.00 123.54L137.25 123.04L137.75 122.96L138.00 122.21L138.00 120.79L138.25 120.04L138.75 119.96L139.00 119.46L139.00 118.54L139.25 118.04L139.75 117.96L140.25 116.46L140.75 113.54L141.25 112.04L141.75 111.96L142.00 110.71L142.00 108.29L142.25 107.04L142.75 106.96L143.00 105.46L143.00 102.54L143.25 101.04L143.75 100.96L144.00 83.96L144.00 50.04L144.25 33.04L144.75 32.96L145.25 29.96L145.75 24.04L146.25 21.04L146.75 20.96L147.00 20.21L147.00 18.79L147.25 18.04L147.75 17.96L148.00 17.21L148.00 15.79L148.25 15.04L148.75 14.96L149.25 13.96L149.75 12.04L151.77 9.31L155.31 5.77L157.54 4.00L158.46 4.00L158.96 3.75L159.04 3.25L159.54 3.00L160.46 3.00L161.19 2.73L161.73 2.19L161.98 1.69L161.94 1.23L155.21 1.00L141.79 1.00L135.04 0.75L134.96 0.25L134.50 0.00L133.67 0.00L133.21 0.00L133.13 0.00ZM0.08 1.25L0.08 1.75L0.54 2.00L1.46 2.00L1.96 2.25L2.04 2.75L3.54 3.50L6.46 4.50L8.44 5.52L9.48 6.56L10.00 7.54L10.00 8.46L10.50 9.21L11.50 9.79L12.00 10.79L12.00 12.21L12.25 12.96L12.75 13.04L13.00 14.29L13.00 16.71L13.25 17.96L13.75 18.04L14.00 31.29L14.00 57.71L13.75 70.96L13.25 71.04L13.00 73.04L13.00 76.96L13.25 78.96L13.75 79.04L14.00 83.54L14.00 92.46L14.25 96.96L14.75 97.04L15.00 99.04L15.00 102.96L15.25 104.96L15.75 105.04L16.00 106.29L16.00 108.71L16.25 109.96L16.75 110.04L17.25 112.04L17.75 115.96L18.25 117.96L18.75 118.04L19.00 118.79L19.00 120.21L19.25 120.96L19.75 121.04L20.25 122.54L20.75 125.46L21.25 126.96L21.75 127.04L22.00 127.54L22.00 128.46L22.25 128.96L22.75 129.04L23.00 129.79L23.00 131.21L23.25 131.96L23.75 132.04L24.00 132.54L24.00 133.46L24.25 133.96L24.75 134.04L25.50 135.54L26.50 138.46L27.50 140.21L28.50 140.79L29.25 142.04L29.75 143.96L30.50 145.21L31.50 145.79L32.00 146.54L32.00 147.46L32.50 148.21L33.50 148.79L34.00 149.54L34.00 150.46L34.50 151.21L35.50 151.79L36.00 152.54L36.00 153.46L36.75 154.46L38.25 155.54L39.00 156.54L39.00 157.46L40.75 159.46L44.25 162.54L46.00 164.54L46.00 165.46L46.27 166.19L46.81 166.73L47.54 167.00L48.46 167.00L50.71 169.00L54.29 173.00L56.54 175.00L57.46 175.00L58.71 176.00L60.29 178.00L61.54 179.00L62.46 179.00L63.21 179.50L63.79 180.50L64.54 181.00L65.46 181.00L66.21 181.50L66.79 182.50L68.04 183.25L69.96 183.75L71.21 184.50L71.79 185.50L72.54 186.00L73.46 186.00L73.96 186.25L74.04 186.75L74.54 187.00L75.46 187.00L75.96 187.25L76.04 187.75L76.54 188.00L77.46 188.00L77.96 188.25L78.04 188.75L78.54 189.00L79.46 189.00L79.96 189.25L80.04 189.75L80.54 190.00L81.46 190.00L81.96 190.25L82.04 190.75L82.54 191.00L83.46 191.00L83.96 191.25L84.04 191.75L84.79 192.00L86.21 192.00L86.96 192.25L87.04 192.75L87.54 193.00L88.46 193.00L88.96 193.25L89.04 193.75L89.79 194.00L91.21 194.00L91.96 194.25L92.04 194.75L92.79 195.00L94.21 195.00L94.96 195.25L95.04 195.75L95.79 196.00L97.21 196.00L97.96 196.25L98.04 196.75L99.04 197.00L100.96 197.00L101.96 197.25L102.04 197.75L103.04 198.00L104.96 198.00L105.96 198.25L106.04 198.75L107.29 199.00L109.71 199.00L110.96 199.25L111.04 199.75L113.04 200.00L116.96 200.00L118.96 200.25L119.04 200.75L124.54 201.00L135.46 201.00L140.96 200.75L141.04 200.25L142.79 200.00L146.21 200.00L147.96 199.75L148.04 199.25L150.29 198.75L154.71 198.25L156.96 197.75L157.04 197.25L157.79 197.00L159.21 197.00L159.96 196.75L160.04 196.25L161.54 195.75L164.46 195.25L165.96 194.75L166.04 194.25L166.54 194.00L167.46 194.00L167.96 193.75L168.04 193.25L168.54 193.00L169.46 193.00L169.96 192.75L170.04 192.25L170.54 192.00L171.46 192.00L171.96 191.75L172.04 191.25L172.79 191.00L174.21 191.00L175.21 190.50L175.79 189.50L177.54 188.50L180.46 187.50L182.46 186.25L183.54 184.75L184.54 184.00L185.46 184.00L186.46 183.25L187.54 181.75L188.54 181.00L189.46 181.00L192.44 178.48L197.48 173.44L200.00 170.46L200.00 169.54L200.75 168.54L202.25 167.46L203.50 165.46L204.50 162.54L204.52 161.06L203.56 161.02L202.04 162.25L199.96 164.75L198.46 166.00L197.54 166.00L196.54 166.75L195.46 168.25L194.46 169.00L193.54 169.00L193.04 169.25L192.96 169.75L192.46 170.00L191.54 170.00L191.04 170.25L190.96 170.75L190.46 171.00L189.54 171.00L189.04 171.25L188.96 171.75L188.46 172.00L187.54 172.00L187.04 172.25L186.96 172.75L186.46 173.00L185.54 173.00L185.04 173.25L184.96 173.75L184.46 174.00L183.54 174.00L183.04 174.25L182.96 174.75L182.21 175.00L180.79 175.00L180.04 175.25L179.96 175.75L179.21 176.00L177.79 176.00L177.04 176.25L176.96 176.75L176.21 177.00L174.79 177.00L174.04 177.25L173.96 177.75L173.21 178.00L171.79 178.00L171.04 178.25L170.96 178.75L168.21 179.25L162.79 179.75L160.04 180.25L159.96 180.75L154.21 181.00L142.79 181.00L137.04 180.75L136.96 180.25L135.21 180.00L131.79 180.00L130.04 179.75L129.96 179.25L128.71 179.00L126.29 179.00L125.04 178.75L124.96 178.25L122.96 177.75L119.04 177.25L117.04 176.75L116.96 176.25L116.46 176.00L115.54 176.00L115.04 175.75L114.96 175.25L114.21 175.00L112.79 175.00L112.04 174.75L111.96 174.25L110.46 173.75L107.54 173.25L106.04 172.75L105.96 172.25L105.46 172.00L104.54 172.00L104.04 171.75L103.96 171.25L103.46 171.00L102.54 171.00L102.04 170.75L101.96 170.25L101.46 170.00L100.54 170.00L100.04 169.75L99.96 169.25L98.46 168.50L95.54 167.50L93.79 166.50L93.21 165.50L91.96 164.75L90.04 164.25L88.79 163.50L88.21 162.50L87.46 162.00L86.54 162.00L85.29 161.00L83.71 159.00L82.44 157.98L81.48 157.94L77.25 154.17L69.75 146.67L66.00 142.46L66.00 141.54L65.25 140.54L63.75 139.46L63.00 138.46L63.00 137.54L62.50 136.79L61.50 136.21L61.00 135.46L61.00 134.54L60.50 133.79L59.50 133.21L58.50 131.46L57.50 128.54L56.50 126.79L55.50 126.21L55.00 125.21L55.00 123.79L54.75 123.04L54.25 122.96L54.00 122.46L54.00 121.54L53.75 121.04L53.25 120.96L53.00 120.46L53.00 119.54L52.75 119.04L52.25 118.96L52.00 118.21L52.00 116.79L51.75 116.04L51.25 115.96L51.00 115.21L51.00 113.79L50.75 113.04L50.25 112.96L50.00 111.96L50.00 110.04L49.75 109.04L49.25 108.96L49.00 107.96L49.00 106.04L48.75 105.04L48.25 104.96L48.00 103.46L48.00 100.54L47.75 99.04L47.25 98.96L47.00 96.21L47.00 90.79L46.75 88.04L46.25 87.96L46.00 71.46L46.00 38.54L46.25 22.04L46.75 21.96L47.00 19.46L47.00 14.54L47.25 12.04L47.75 11.96L48.00 11.46L48.00 10.54L48.25 10.04L48.75 9.96L49.00 9.46L49.00 8.54L49.25 8.04L49.75 7.96L50.00 7.46L50.00 6.54L50.27 5.81L50.81 5.27L51.54 5.00L52.46 5.00L52.96 4.75L53.04 4.25L53.54 4.00L54.46 4.00L54.96 3.75L55.04 3.25L55.54 3.00L56.46 3.00L56.96 2.75L57.04 2.25L57.54 2.00L58.46 2.00L58.94 1.77L58.98 1.31L44.31 1.06L14.94 1.02L0.21 1.00L0.13 1.00Z" fill="#FFFFFF" fill-rule="evenodd"></path></g>
</svg>